<svg width="1080" height="1080" viewBox="0 0 1080 1080" fill="none" xmlns="http://www.w3.org/2000/svg">
<g clip-path="url(#clip0_2_2)">
<path d="M1024 840C1024 840 1009.2 834.944 983.539 825.488C970.802 820.339 954.692 816.126 936.71 810.415C918.727 804.704 898.028 799.555 875.55 793.563L858.41 789.069L840.334 785.417L802.87 777.459C789.852 774.838 776.271 773.153 762.597 770.906C748.922 768.659 734.499 766.131 720.45 764.82L676.898 759.858C662.1 758.454 647.021 757.892 631.848 756.675L609.089 755.083C601.502 755.083 593.822 755.083 586.142 754.522L539.968 753.492L493.701 754.522C485.927 754.522 478.153 754.522 470.473 755.083L447.901 756.675C432.822 757.892 417.93 758.548 403.132 759.858L359.393 764.914C344.969 766.131 331.295 768.846 317.246 770.906C303.197 772.966 289.991 774.932 276.973 777.459L239.509 785.511L221.433 789.162L204.199 793.656C181.815 799.555 160.929 804.423 143.04 810.509C125.151 816.594 108.948 820.433 96.2101 825.582C70.6411 834.944 55.7493 840 55.7493 840C55.7493 840 69.3299 832.323 93.6813 819.496C105.67 812.662 121.03 806.296 138.544 798.525L152.218 792.533L159.337 789.443L166.736 786.728L198.674 775.306L215.813 769.221L233.796 763.884L271.821 753.211C284.934 749.747 298.702 747.125 312.563 743.849C326.425 740.572 340.661 737.576 355.366 735.61L400.041 728.869C415.214 726.903 430.668 725.779 446.309 724.375L469.817 722.315C477.591 721.753 485.271 721.753 493.139 721.473L539.968 720.068L587.36 721.473C595.227 721.473 603.095 721.473 610.868 722.315L634.19 724.375C649.737 725.873 665.097 726.996 680.27 728.869L724.852 735.703C739.556 737.669 753.793 740.759 767.748 743.942C781.703 747.125 795.284 749.747 808.396 753.305L846.422 763.978L864.498 769.314L881.544 775.306L913.482 786.728L920.975 789.537L928.093 792.626L941.767 798.618C959.375 806.295 974.735 812.756 986.63 819.496C1010.42 832.323 1024 840 1024 840Z" fill="black"/>
<path d="M623.793 439.479V358.494L592.605 336.118V100L501.474 145.501V271.518L464.011 245.023V538.72L407.253 574.016V754.615L671.934 750.496V409.8L623.793 439.479ZM647.021 726.247L431.604 729.618V587.685L463.823 567.743L476.186 560.066L488.456 552.389L599.348 483.669L611.618 476.086L623.887 468.408L647.115 454.084L647.021 726.247ZM488.362 292.677L501.1 302.039L513.463 310.746L525.732 319.547L567.598 349.132L579.961 357.933L592.23 366.64L599.255 371.602V455.114L488.362 523.833V292.677ZM525.826 160.762L567.691 139.79V318.611L525.826 288.932V160.762Z" fill="black"/>
</g>
<path d="M87.05 939V859H101.9C106.9 859 110.517 860 112.75 862C115.017 864 116.217 867.317 116.35 871.95C116.517 876.383 116.6 880.367 116.6 883.9C116.6 887.433 116.517 891.067 116.35 894.8C116.183 899.4 114.967 902.7 112.7 904.7C110.433 906.7 106.8 907.7 101.8 907.7H95V939H87.05ZM95 900.55H101.8C104.233 900.55 105.917 900.133 106.85 899.3C107.817 898.467 108.35 897.05 108.45 895.05C108.583 892.483 108.667 890.017 108.7 887.65C108.733 885.25 108.733 882.767 108.7 880.2C108.667 877.6 108.583 874.75 108.45 871.65C108.383 869.617 107.867 868.2 106.9 867.4C105.933 866.567 104.267 866.15 101.9 866.15H95V900.55ZM139.57 939.75C134.303 939.75 130.52 938.717 128.22 936.65C125.953 934.583 124.703 931.25 124.47 926.65C124.403 924.25 124.336 921.567 124.27 918.6C124.236 915.6 124.22 912.517 124.22 909.35C124.22 906.15 124.236 903.017 124.27 899.95C124.303 896.883 124.37 894.05 124.47 891.45C124.703 886.717 125.986 883.333 128.32 881.3C130.686 879.267 134.403 878.25 139.47 878.25C144.57 878.25 148.236 879.283 150.47 881.35C152.703 883.417 153.92 886.667 154.12 891.1C154.153 891.867 154.17 893.333 154.17 895.5C154.203 897.633 154.203 900.067 154.17 902.8C154.17 905.5 154.12 908.083 154.02 910.55H132.27C132.27 913.317 132.286 916.117 132.32 918.95C132.386 921.75 132.436 924.6 132.47 927.5C132.536 929.767 133.12 931.333 134.22 932.2C135.32 933.067 137.053 933.5 139.42 933.5C141.786 933.5 143.47 933.067 144.47 932.2C145.503 931.333 146.07 929.767 146.17 927.5C146.236 926.5 146.253 925.133 146.22 923.4C146.22 921.667 146.17 919.867 146.07 918H154.02C154.086 919.133 154.136 920.6 154.17 922.4C154.203 924.167 154.186 925.583 154.12 926.65C153.886 931.317 152.67 934.667 150.47 936.7C148.303 938.733 144.67 939.75 139.57 939.75ZM132.27 904.45H146.27C146.303 902.583 146.32 900.7 146.32 898.8C146.353 896.867 146.353 895.15 146.32 893.65C146.286 892.117 146.236 891.05 146.17 890.45C146.036 888.183 145.436 886.617 144.37 885.75C143.303 884.85 141.67 884.4 139.47 884.4C136.936 884.4 135.153 884.9 134.12 885.9C133.086 886.9 132.536 888.417 132.47 890.45C132.436 892.717 132.386 895.033 132.32 897.4C132.286 899.733 132.27 902.083 132.27 904.45ZM173.413 939.65C169.713 939.65 166.846 938.683 164.813 936.75C162.779 934.783 161.613 931.817 161.313 927.85C161.279 927.017 161.246 926.2 161.213 925.4C161.179 924.567 161.179 923.733 161.213 922.9C161.346 920.5 161.779 918.35 162.513 916.45C163.279 914.55 164.496 912.817 166.163 911.25C167.829 909.683 170.129 908.2 173.063 906.8C174.629 906.033 176.313 905.267 178.113 904.5C179.913 903.733 181.679 903.067 183.413 902.5V890.6C183.413 888.4 182.946 886.817 182.013 885.85C181.113 884.883 179.479 884.4 177.113 884.4C175.113 884.4 173.513 884.817 172.313 885.65C171.113 886.483 170.463 887.967 170.363 890.1C170.296 891.1 170.246 892.25 170.213 893.55C170.213 894.817 170.229 896.033 170.263 897.2C170.296 898.333 170.329 899.217 170.363 899.85H162.563C162.529 898.417 162.496 896.95 162.463 895.45C162.429 893.95 162.429 892.5 162.463 891.1C162.596 888.167 163.163 885.75 164.162 883.85C165.163 881.95 166.729 880.55 168.863 879.65C171.029 878.717 173.896 878.25 177.463 878.25C181.029 878.25 183.812 878.733 185.812 879.7C187.812 880.633 189.213 882.133 190.013 884.2C190.846 886.267 191.263 888.933 191.263 892.2L191.213 939H183.262V933.45H182.163C181.296 935.383 180.263 936.9 179.063 938C177.896 939.1 176.013 939.65 173.413 939.65ZM175.513 933.65C177.413 933.65 179.013 933.167 180.313 932.2C181.613 931.233 182.613 929.833 183.313 928L183.413 909.25C182.079 909.65 180.713 910.167 179.313 910.8C177.913 911.433 176.346 912.283 174.613 913.35C172.446 914.583 171.013 915.983 170.313 917.55C169.646 919.083 169.279 920.867 169.213 922.9C169.179 923.8 169.163 924.6 169.163 925.3C169.196 926 169.229 926.7 169.263 927.4C169.429 929.333 170.046 930.867 171.113 932C172.213 933.1 173.679 933.65 175.513 933.65ZM202.077 939V859H209.677V874.5L208.927 905.4H210.677L216.527 890.45L221.777 879H230.127L218.427 903.5L232.777 939H224.377L213.577 911.9L209.877 918.6V939H202.077ZM274.168 939.75C268.868 939.75 264.968 938.683 262.468 936.55C260.001 934.417 258.735 930.883 258.668 925.95C258.601 921.05 258.551 916.4 258.518 912C258.485 907.567 258.468 903.233 258.468 899C258.468 894.767 258.485 890.45 258.518 886.05C258.551 881.65 258.601 877 258.668 872.1C258.735 867.267 260.001 863.783 262.468 861.65C264.968 859.483 268.868 858.4 274.168 858.4C279.468 858.4 283.368 859.483 285.868 861.65C288.368 863.817 289.718 867.3 289.918 872.1C289.985 873.833 290.018 875.5 290.018 877.1C290.051 878.667 290.051 880.233 290.018 881.8C289.985 883.367 289.918 885.033 289.818 886.8H281.918C281.985 885 282.018 883.3 282.018 881.7C282.051 880.1 282.068 878.5 282.068 876.9C282.068 875.3 282.035 873.617 281.968 871.85C281.868 869.317 281.235 867.583 280.068 866.65C278.901 865.683 276.935 865.2 274.168 865.2C271.468 865.2 269.535 865.683 268.368 866.65C267.235 867.583 266.635 869.317 266.568 871.85C266.468 877.083 266.385 881.9 266.318 886.3C266.251 890.667 266.218 894.917 266.218 899.05C266.218 903.15 266.251 907.4 266.318 911.8C266.385 916.167 266.468 920.983 266.568 926.25C266.635 928.783 267.251 930.533 268.418 931.5C269.585 932.467 271.501 932.95 274.168 932.95C277.101 932.95 279.168 932.467 280.368 931.5C281.601 930.533 282.268 928.783 282.368 926.25C282.435 924.717 282.468 923.217 282.468 921.75C282.468 920.25 282.451 918.583 282.418 916.75C282.385 914.883 282.335 912.683 282.268 910.15H290.218C290.351 913.35 290.418 916.183 290.418 918.65C290.451 921.083 290.418 923.517 290.318 925.95C290.118 930.883 288.751 934.417 286.218 936.55C283.718 938.683 279.701 939.75 274.168 939.75ZM300.515 939V859H308.615V884.5H310.265C311.398 882.4 312.698 880.833 314.165 879.8C315.632 878.767 317.698 878.25 320.365 878.25C324.065 878.25 326.798 879.25 328.565 881.25C330.332 883.25 331.215 886.467 331.215 890.9L331.315 939H323.315L323.215 890.3C323.215 888.167 322.765 886.633 321.865 885.7C320.965 884.767 319.498 884.3 317.465 884.3C315.298 884.3 313.465 884.783 311.965 885.75C310.465 886.717 309.348 888.183 308.615 890.15V939H300.515ZM352.416 939.65C348.716 939.65 345.85 938.683 343.816 936.75C341.783 934.783 340.616 931.817 340.316 927.85C340.283 927.017 340.25 926.2 340.216 925.4C340.183 924.567 340.183 923.733 340.216 922.9C340.35 920.5 340.783 918.35 341.516 916.45C342.283 914.55 343.5 912.817 345.166 911.25C346.833 909.683 349.133 908.2 352.066 906.8C353.633 906.033 355.316 905.267 357.116 904.5C358.916 903.733 360.683 903.067 362.416 902.5V890.6C362.416 888.4 361.95 886.817 361.016 885.85C360.116 884.883 358.483 884.4 356.116 884.4C354.116 884.4 352.516 884.817 351.316 885.65C350.116 886.483 349.466 887.967 349.366 890.1C349.3 891.1 349.25 892.25 349.216 893.55C349.216 894.817 349.233 896.033 349.266 897.2C349.3 898.333 349.333 899.217 349.366 899.85H341.566C341.533 898.417 341.5 896.95 341.466 895.45C341.433 893.95 341.433 892.5 341.466 891.1C341.6 888.167 342.166 885.75 343.166 883.85C344.166 881.95 345.733 880.55 347.866 879.65C350.033 878.717 352.9 878.25 356.466 878.25C360.033 878.25 362.816 878.733 364.816 879.7C366.816 880.633 368.216 882.133 369.016 884.2C369.85 886.267 370.266 888.933 370.266 892.2L370.216 939H362.266V933.45H361.166C360.3 935.383 359.266 936.9 358.066 938C356.9 939.1 355.016 939.65 352.416 939.65ZM354.516 933.65C356.416 933.65 358.016 933.167 359.316 932.2C360.616 931.233 361.616 929.833 362.316 928L362.416 909.25C361.083 909.65 359.716 910.167 358.316 910.8C356.916 911.433 355.35 912.283 353.616 913.35C351.45 914.583 350.016 915.983 349.316 917.55C348.65 919.083 348.283 920.867 348.216 922.9C348.183 923.8 348.166 924.6 348.166 925.3C348.2 926 348.233 926.7 348.266 927.4C348.433 929.333 349.05 930.867 350.116 932C351.216 933.1 352.683 933.65 354.516 933.65ZM381.081 939V879H389.081V884.5H390.631C391.698 882.467 392.915 880.917 394.281 879.85C395.681 878.783 397.698 878.25 400.331 878.25C402.931 878.25 405.048 878.783 406.681 879.85C408.315 880.917 409.481 882.617 410.181 884.95H411.631C412.698 882.883 414.031 881.25 415.631 880.05C417.231 878.85 419.348 878.25 421.981 878.25C425.448 878.25 428.048 879.233 429.781 881.2C431.548 883.167 432.448 886.4 432.481 890.9V939H424.481V890.3C424.481 888.167 424.015 886.633 423.081 885.7C422.181 884.767 420.815 884.3 418.981 884.3C416.915 884.3 415.231 884.833 413.931 885.9C412.665 886.967 411.665 888.433 410.931 890.3V939H402.931V890.3C402.931 888.167 402.481 886.633 401.581 885.7C400.681 884.767 399.298 884.3 397.431 884.3C395.398 884.3 393.665 884.817 392.231 885.85C390.798 886.85 389.748 888.283 389.081 890.15V939H381.081ZM462.688 939.75C460.022 939.75 457.955 939.233 456.488 938.2C455.055 937.133 453.755 935.55 452.588 933.45H451.388V939H443.288V859H451.388V884.5H453.038C454.172 882.4 455.472 880.833 456.938 879.8C458.405 878.767 460.472 878.25 463.138 878.25C466.672 878.25 469.338 879.217 471.138 881.15C472.938 883.083 473.888 886.333 473.988 890.9C474.055 893.367 474.105 896.133 474.138 899.2C474.205 902.233 474.238 905.4 474.238 908.7C474.238 912 474.205 915.233 474.138 918.4C474.105 921.533 474.055 924.433 473.988 927.1C473.855 931.567 472.838 934.8 470.938 936.8C469.038 938.767 466.288 939.75 462.688 939.75ZM460.188 933.65C462.222 933.65 463.672 933.183 464.538 932.25C465.405 931.317 465.872 929.783 465.938 927.65C466.038 924.483 466.122 921.433 466.188 918.5C466.255 915.533 466.288 912.583 466.288 909.65C466.288 906.683 466.255 903.617 466.188 900.45C466.155 897.283 466.088 893.917 465.988 890.35C465.922 888.283 465.455 886.767 464.588 885.8C463.722 884.8 462.255 884.3 460.188 884.3C458.055 884.3 456.238 884.783 454.738 885.75C453.238 886.717 452.122 888.183 451.388 890.15V927.8C452.155 929.867 453.322 931.367 454.888 932.3C456.488 933.2 458.255 933.65 460.188 933.65ZM498.456 939.75C493.19 939.75 489.406 938.717 487.106 936.65C484.84 934.583 483.59 931.25 483.356 926.65C483.29 924.25 483.223 921.567 483.156 918.6C483.123 915.6 483.106 912.517 483.106 909.35C483.106 906.15 483.123 903.017 483.156 899.95C483.19 896.883 483.256 894.05 483.356 891.45C483.59 886.717 484.873 883.333 487.206 881.3C489.573 879.267 493.29 878.25 498.356 878.25C503.456 878.25 507.123 879.283 509.356 881.35C511.59 883.417 512.806 886.667 513.006 891.1C513.04 891.867 513.056 893.333 513.056 895.5C513.09 897.633 513.09 900.067 513.056 902.8C513.056 905.5 513.006 908.083 512.906 910.55H491.156C491.156 913.317 491.173 916.117 491.206 918.95C491.273 921.75 491.323 924.6 491.356 927.5C491.423 929.767 492.006 931.333 493.106 932.2C494.206 933.067 495.94 933.5 498.306 933.5C500.673 933.5 502.356 933.067 503.356 932.2C504.39 931.333 504.956 929.767 505.056 927.5C505.123 926.5 505.14 925.133 505.106 923.4C505.106 921.667 505.056 919.867 504.956 918H512.906C512.973 919.133 513.023 920.6 513.056 922.4C513.09 924.167 513.073 925.583 513.006 926.65C512.773 931.317 511.556 934.667 509.356 936.7C507.19 938.733 503.556 939.75 498.456 939.75ZM491.156 904.45H505.156C505.19 902.583 505.206 900.7 505.206 898.8C505.24 896.867 505.24 895.15 505.206 893.65C505.173 892.117 505.123 891.05 505.056 890.45C504.923 888.183 504.323 886.617 503.256 885.75C502.19 884.85 500.556 884.4 498.356 884.4C495.823 884.4 494.04 884.9 493.006 885.9C491.973 886.9 491.423 888.417 491.356 890.45C491.323 892.717 491.273 895.033 491.206 897.4C491.173 899.733 491.156 902.083 491.156 904.45ZM522.585 939V879H530.735V884.95H532.435C533.035 882.683 534.052 881.083 535.485 880.15C536.952 879.217 538.902 878.75 541.335 878.75C541.968 878.75 542.585 878.783 543.185 878.85C543.818 878.917 544.452 878.95 545.085 878.95V885.2H541.435C538.402 885.2 536.018 885.683 534.285 886.65C532.552 887.617 531.368 889.333 530.735 891.8V939H522.585ZM583.029 939.75C579.429 939.75 576.546 939.283 574.379 938.35C572.212 937.383 570.612 935.867 569.579 933.8C568.579 931.733 568.012 929.033 567.879 925.7C567.779 923.667 567.696 921.267 567.629 918.5C567.596 915.7 567.579 912.767 567.579 909.7C567.579 906.633 567.596 903.6 567.629 900.6C567.696 897.567 567.779 894.817 567.879 892.35C568.046 888.917 568.629 886.183 569.629 884.15C570.662 882.083 572.246 880.583 574.379 879.65C576.546 878.717 579.429 878.25 583.029 878.25C586.696 878.25 589.596 878.733 591.729 879.7C593.862 880.633 595.412 882.133 596.379 884.2C597.379 886.267 597.962 888.983 598.129 892.35C598.229 894.617 598.296 897.15 598.329 899.95C598.396 902.75 598.429 905.65 598.429 908.65C598.429 911.617 598.396 914.567 598.329 917.5C598.296 920.433 598.229 923.167 598.129 925.7C597.962 929.033 597.379 931.733 596.379 933.8C595.379 935.867 593.812 937.383 591.679 938.35C589.546 939.283 586.662 939.75 583.029 939.75ZM583.029 933.55C585.662 933.55 587.496 933.05 588.529 932.05C589.562 931.05 590.112 929.483 590.179 927.35C590.279 924.317 590.362 921.3 590.429 918.3C590.496 915.267 590.529 912.233 590.529 909.2C590.562 906.133 590.546 903.05 590.479 899.95C590.412 896.85 590.312 893.733 590.179 890.6C590.112 888.367 589.546 886.783 588.479 885.85C587.412 884.917 585.596 884.45 583.029 884.45C580.462 884.45 578.629 884.95 577.529 885.95C576.429 886.917 575.846 888.517 575.779 890.75C575.679 893.417 575.596 896.233 575.529 899.2C575.462 902.167 575.429 905.217 575.429 908.35C575.429 911.483 575.446 914.65 575.479 917.85C575.546 921.017 575.646 924.133 575.779 927.2C575.879 929.467 576.462 931.1 577.529 932.1C578.629 933.067 580.462 933.55 583.029 933.55ZM609.925 939V885.2H604.575V879H609.925V871.2C609.892 866.533 611.025 863.2 613.325 861.2C615.625 859.167 619.308 858.15 624.375 858.15C625.375 858.15 626.525 858.217 627.825 858.35C629.125 858.45 630.308 858.583 631.375 858.75V864.8C630.408 864.733 629.342 864.667 628.175 864.6C627.042 864.533 625.825 864.5 624.525 864.5C622.258 864.5 620.575 864.933 619.475 865.8C618.408 866.667 617.892 868.283 617.925 870.65V879H629.525V885.2H617.925V939H609.925ZM671.238 939.75C665.938 939.75 662.038 938.683 659.538 936.55C657.072 934.417 655.805 930.883 655.738 925.95C655.672 921.05 655.622 916.4 655.588 912C655.555 907.567 655.538 903.233 655.538 899C655.538 894.767 655.555 890.45 655.588 886.05C655.622 881.65 655.672 877 655.738 872.1C655.805 867.267 657.072 863.783 659.538 861.65C662.038 859.483 665.938 858.4 671.238 858.4C676.538 858.4 680.438 859.483 682.938 861.65C685.438 863.817 686.788 867.3 686.988 872.1C687.055 873.833 687.088 875.5 687.088 877.1C687.122 878.667 687.122 880.233 687.088 881.8C687.055 883.367 686.988 885.033 686.888 886.8H678.988C679.055 885 679.088 883.3 679.088 881.7C679.122 880.1 679.138 878.5 679.138 876.9C679.138 875.3 679.105 873.617 679.038 871.85C678.938 869.317 678.305 867.583 677.138 866.65C675.972 865.683 674.005 865.2 671.238 865.2C668.538 865.2 666.605 865.683 665.438 866.65C664.305 867.583 663.705 869.317 663.638 871.85C663.538 877.083 663.455 881.9 663.388 886.3C663.322 890.667 663.288 894.917 663.288 899.05C663.288 903.15 663.322 907.4 663.388 911.8C663.455 916.167 663.538 920.983 663.638 926.25C663.705 928.783 664.322 930.533 665.488 931.5C666.655 932.467 668.572 932.95 671.238 932.95C674.172 932.95 676.238 932.467 677.438 931.5C678.672 930.533 679.338 928.783 679.438 926.25C679.505 924.717 679.538 923.217 679.538 921.75C679.538 920.25 679.522 918.583 679.488 916.75C679.455 914.883 679.405 912.683 679.338 910.15H687.288C687.422 913.35 687.488 916.183 687.488 918.65C687.522 921.083 687.488 923.517 687.388 925.95C687.188 930.883 685.822 934.417 683.288 936.55C680.788 938.683 676.772 939.75 671.238 939.75ZM711.935 939.75C708.335 939.75 705.452 939.283 703.285 938.35C701.118 937.383 699.518 935.867 698.485 933.8C697.485 931.733 696.918 929.033 696.785 925.7C696.685 923.667 696.602 921.267 696.535 918.5C696.502 915.7 696.485 912.767 696.485 909.7C696.485 906.633 696.502 903.6 696.535 900.6C696.602 897.567 696.685 894.817 696.785 892.35C696.952 888.917 697.535 886.183 698.535 884.15C699.568 882.083 701.152 880.583 703.285 879.65C705.452 878.717 708.335 878.25 711.935 878.25C715.602 878.25 718.502 878.733 720.635 879.7C722.768 880.633 724.318 882.133 725.285 884.2C726.285 886.267 726.868 888.983 727.035 892.35C727.135 894.617 727.202 897.15 727.235 899.95C727.302 902.75 727.335 905.65 727.335 908.65C727.335 911.617 727.302 914.567 727.235 917.5C727.202 920.433 727.135 923.167 727.035 925.7C726.868 929.033 726.285 931.733 725.285 933.8C724.285 935.867 722.718 937.383 720.585 938.35C718.452 939.283 715.568 939.75 711.935 939.75ZM711.935 933.55C714.568 933.55 716.402 933.05 717.435 932.05C718.468 931.05 719.018 929.483 719.085 927.35C719.185 924.317 719.268 921.3 719.335 918.3C719.402 915.267 719.435 912.233 719.435 909.2C719.468 906.133 719.452 903.05 719.385 899.95C719.318 896.85 719.218 893.733 719.085 890.6C719.018 888.367 718.452 886.783 717.385 885.85C716.318 884.917 714.502 884.45 711.935 884.45C709.368 884.45 707.535 884.95 706.435 885.95C705.335 886.917 704.752 888.517 704.685 890.75C704.585 893.417 704.502 896.233 704.435 899.2C704.368 902.167 704.335 905.217 704.335 908.35C704.335 911.483 704.352 914.65 704.385 917.85C704.452 921.017 704.552 924.133 704.685 927.2C704.785 929.467 705.368 931.1 706.435 932.1C707.535 933.067 709.368 933.55 711.935 933.55ZM737.331 939V879H745.331V884.5H746.881C747.948 882.467 749.165 880.917 750.531 879.85C751.931 878.783 753.948 878.25 756.581 878.25C759.181 878.25 761.298 878.783 762.931 879.85C764.565 880.917 765.731 882.617 766.431 884.95H767.881C768.948 882.883 770.281 881.25 771.881 880.05C773.481 878.85 775.598 878.25 778.231 878.25C781.698 878.25 784.298 879.233 786.031 881.2C787.798 883.167 788.698 886.4 788.731 890.9V939H780.731V890.3C780.731 888.167 780.265 886.633 779.331 885.7C778.431 884.767 777.065 884.3 775.231 884.3C773.165 884.3 771.481 884.833 770.181 885.9C768.915 886.967 767.915 888.433 767.181 890.3V939H759.181V890.3C759.181 888.167 758.731 886.633 757.831 885.7C756.931 884.767 755.548 884.3 753.681 884.3C751.648 884.3 749.915 884.817 748.481 885.85C747.048 886.85 745.998 888.283 745.331 890.15V939H737.331ZM799.538 939V879H807.538V884.5H809.088C810.155 882.467 811.372 880.917 812.738 879.85C814.138 878.783 816.155 878.25 818.788 878.25C821.388 878.25 823.505 878.783 825.138 879.85C826.772 880.917 827.938 882.617 828.638 884.95H830.088C831.155 882.883 832.488 881.25 834.088 880.05C835.688 878.85 837.805 878.25 840.438 878.25C843.905 878.25 846.505 879.233 848.238 881.2C850.005 883.167 850.905 886.4 850.938 890.9V939H842.938V890.3C842.938 888.167 842.472 886.633 841.538 885.7C840.638 884.767 839.272 884.3 837.438 884.3C835.372 884.3 833.688 884.833 832.388 885.9C831.122 886.967 830.122 888.433 829.388 890.3V939H821.388V890.3C821.388 888.167 820.938 886.633 820.038 885.7C819.138 884.767 817.755 884.3 815.888 884.3C813.855 884.3 812.122 884.817 810.688 885.85C809.255 886.85 808.205 888.283 807.538 890.15V939H799.538ZM875.995 939.75C870.729 939.75 866.945 938.717 864.645 936.65C862.379 934.583 861.129 931.25 860.895 926.65C860.829 924.25 860.762 921.567 860.695 918.6C860.662 915.6 860.645 912.517 860.645 909.35C860.645 906.15 860.662 903.017 860.695 899.95C860.729 896.883 860.795 894.05 860.895 891.45C861.129 886.717 862.412 883.333 864.745 881.3C867.112 879.267 870.829 878.25 875.895 878.25C880.995 878.25 884.662 879.283 886.895 881.35C889.129 883.417 890.345 886.667 890.545 891.1C890.579 891.867 890.595 893.333 890.595 895.5C890.629 897.633 890.629 900.067 890.595 902.8C890.595 905.5 890.545 908.083 890.445 910.55H868.695C868.695 913.317 868.712 916.117 868.745 918.95C868.812 921.75 868.862 924.6 868.895 927.5C868.962 929.767 869.545 931.333 870.645 932.2C871.745 933.067 873.479 933.5 875.845 933.5C878.212 933.5 879.895 933.067 880.895 932.2C881.929 931.333 882.495 929.767 882.595 927.5C882.662 926.5 882.679 925.133 882.645 923.4C882.645 921.667 882.595 919.867 882.495 918H890.445C890.512 919.133 890.562 920.6 890.595 922.4C890.629 924.167 890.612 925.583 890.545 926.65C890.312 931.317 889.095 934.667 886.895 936.7C884.729 938.733 881.095 939.75 875.995 939.75ZM868.695 904.45H882.695C882.729 902.583 882.745 900.7 882.745 898.8C882.779 896.867 882.779 895.15 882.745 893.65C882.712 892.117 882.662 891.05 882.595 890.45C882.462 888.183 881.862 886.617 880.795 885.75C879.729 884.85 878.095 884.4 875.895 884.4C873.362 884.4 871.579 884.9 870.545 885.9C869.512 886.9 868.962 888.417 868.895 890.45C868.862 892.717 868.812 895.033 868.745 897.4C868.712 899.733 868.695 902.083 868.695 904.45ZM900.124 939V879H908.274V884.95H909.974C910.574 882.683 911.591 881.083 913.024 880.15C914.491 879.217 916.441 878.75 918.874 878.75C919.508 878.75 920.124 878.783 920.724 878.85C921.358 878.917 921.991 878.95 922.624 878.95V885.2H918.974C915.941 885.2 913.558 885.683 911.824 886.65C910.091 887.617 908.908 889.333 908.274 891.8V939H900.124ZM947.877 899.85C947.944 898.75 947.977 897.65 947.977 896.55C947.977 895.45 947.977 894.367 947.977 893.3C947.977 892.233 947.961 891.25 947.927 890.35C947.894 888.15 947.361 886.617 946.327 885.75C945.294 884.883 943.561 884.45 941.127 884.45C938.661 884.45 936.911 884.9 935.877 885.8C934.877 886.667 934.344 888.2 934.277 890.4C934.177 893.5 934.111 896.567 934.077 899.6C934.044 902.633 934.027 905.683 934.027 908.75C934.027 911.817 934.044 914.9 934.077 918C934.111 921.1 934.177 924.267 934.277 927.5C934.344 929.767 934.911 931.35 935.977 932.25C937.077 933.117 938.811 933.55 941.177 933.55C943.611 933.55 945.327 933.1 946.327 932.2C947.361 931.3 947.894 929.717 947.927 927.45C947.961 926.05 947.977 924.617 947.977 923.15C947.977 921.683 947.944 919.967 947.877 918H955.727C955.827 919.2 955.877 920.667 955.877 922.4C955.911 924.1 955.894 925.533 955.827 926.7C955.661 931.333 954.444 934.667 952.177 936.7C949.944 938.733 946.277 939.75 941.177 939.75C935.944 939.75 932.194 938.733 929.927 936.7C927.661 934.633 926.427 931.3 926.227 926.7C926.161 924.3 926.094 921.617 926.027 918.65C925.994 915.65 925.977 912.55 925.977 909.35C925.977 906.15 925.994 903.017 926.027 899.95C926.061 896.85 926.127 894 926.227 891.4C926.461 886.7 927.727 883.333 930.027 881.3C932.327 879.267 936.027 878.25 941.127 878.25C946.261 878.25 949.961 879.25 952.227 881.25C954.527 883.25 955.727 886.55 955.827 891.15C955.894 892.517 955.911 893.983 955.877 895.55C955.877 897.117 955.827 898.55 955.727 899.85H947.877ZM979.804 939.75C974.537 939.75 970.754 938.717 968.454 936.65C966.187 934.583 964.937 931.25 964.704 926.65C964.637 924.25 964.571 921.567 964.504 918.6C964.471 915.6 964.454 912.517 964.454 909.35C964.454 906.15 964.471 903.017 964.504 899.95C964.537 896.883 964.604 894.05 964.704 891.45C964.937 886.717 966.221 883.333 968.554 881.3C970.921 879.267 974.637 878.25 979.704 878.25C984.804 878.25 988.471 879.283 990.704 881.35C992.937 883.417 994.154 886.667 994.354 891.1C994.387 891.867 994.404 893.333 994.404 895.5C994.437 897.633 994.437 900.067 994.404 902.8C994.404 905.5 994.354 908.083 994.254 910.55H972.504C972.504 913.317 972.521 916.117 972.554 918.95C972.621 921.75 972.671 924.6 972.704 927.5C972.771 929.767 973.354 931.333 974.454 932.2C975.554 933.067 977.287 933.5 979.654 933.5C982.021 933.5 983.704 933.067 984.704 932.2C985.737 931.333 986.304 929.767 986.404 927.5C986.471 926.5 986.487 925.133 986.454 923.4C986.454 921.667 986.404 919.867 986.304 918H994.254C994.321 919.133 994.371 920.6 994.404 922.4C994.437 924.167 994.421 925.583 994.354 926.65C994.121 931.317 992.904 934.667 990.704 936.7C988.537 938.733 984.904 939.75 979.804 939.75ZM972.504 904.45H986.504C986.537 902.583 986.554 900.7 986.554 898.8C986.587 896.867 986.587 895.15 986.554 893.65C986.521 892.117 986.471 891.05 986.404 890.45C986.271 888.183 985.671 886.617 984.604 885.75C983.537 884.85 981.904 884.4 979.704 884.4C977.171 884.4 975.387 884.9 974.354 885.9C973.321 886.9 972.771 888.417 972.704 890.45C972.671 892.717 972.621 895.033 972.554 897.4C972.521 899.733 972.504 902.083 972.504 904.45Z" fill="black"/>
<defs>
<clipPath id="clip0_2_2">
<rect width="969" height="740" fill="white" transform="translate(55 100)"/>
</clipPath>
</defs>
</svg>
